<svg id="abc-broadcast" xmlns="http://www.w3.org/2000/svg" width="75.71" height="75.71" viewBox="0 0 75.71 75.71">
  <path id="Path_19603" data-name="Path 19603" d="M0,0H75.71V75.71H0Z" fill="#fff" fill-rule="evenodd"/>
  <path id="Path_19604" data-name="Path 19604" d="M39.8,2.835A36.742,36.742,0,1,0,76.4,39.577,36.669,36.669,0,0,0,39.8,2.835ZM21.83,50.221V47.18a7.387,7.387,0,0,1-5.879,2.9,11.118,11.118,0,0,1,0-22.235A11.376,11.376,0,0,1,27.387,38.929l.006,11.253-5.563.039Zm18.249.175A11.376,11.376,0,0,1,28.644,39.317l-.006-18.706h5.555L34.2,31.065a7.39,7.39,0,0,1,5.879-2.9,11.118,11.118,0,0,1,0,22.236Zm23.81-.261a11.117,11.117,0,0,1,0-22.234,11.214,11.214,0,0,1,10.857,8.959l-5.569-.018a5.608,5.608,0,1,0,.025,4.514l5.568-.026a11.063,11.063,0,0,1-10.881,8.806Z" transform="translate(-1.949 -1.721)" fill-rule="evenodd"/>
  <path id="Path_19605" data-name="Path 19605" d="M51.053,80.5a5.643,5.643,0,1,0,5.621,5.643A5.632,5.632,0,0,0,51.053,80.5Zm-23.917,0a5.643,5.643,0,1,0,5.621,5.643A5.632,5.632,0,0,0,27.137,80.5Z" transform="translate(-13.065 -48.88)" fill-rule="evenodd"/>
</svg>
