<svg xmlns="http://www.w3.org/2000/svg" width="159.102" height="29.316" viewBox="0 0 159.102 29.316">
  <path id="bloomberg-1" d="M115-9.6h11.664a8.29,8.29,0,0,1,5.122,1.481,5.82,5.82,0,0,1,2.1,4.69,4.537,4.537,0,0,1-2.777,4.567v.123A5.7,5.7,0,0,1,135,6.94a6.976,6.976,0,0,1-2.592,5.74,8.868,8.868,0,0,1-5.431,1.419H115ZM125.492-.343a1.961,1.961,0,0,0,2.16-2.1,1.965,1.965,0,0,0-2.222-2.037h-4.012V-.4h4.073Zm.555,9.2a2.284,2.284,0,0,0,2.469-2.407,2.25,2.25,0,0,0-2.469-2.407H121.48V8.915h4.567Zm10-18.453h6.11V14.16h-6.11Zm7.344,15.305c0-5.369,3.456-8.949,8.825-8.949S160.978.4,160.978,5.705c0,5.369-3.394,8.949-8.764,8.949S143.389,11.075,143.389,5.705Zm11.479,0c0-2.962-.926-4.814-2.777-4.814s-2.715,1.851-2.715,4.814.864,4.876,2.715,4.876C153.942,10.519,154.868,8.668,154.868,5.705Zm6.789,0c0-5.369,3.456-8.949,8.825-8.949s8.7,3.579,8.7,8.949-3.394,8.949-8.764,8.949C165.113,14.654,161.657,11.075,161.657,5.705Zm11.479,0c0-2.962-.926-4.814-2.777-4.814s-2.715,1.851-2.715,4.814.864,4.876,2.715,4.876C172.21,10.519,173.136,8.668,173.136,5.705Zm7.282-8.517H186.1v2.53h.123a5.38,5.38,0,0,1,5.122-3.024,4.687,4.687,0,0,1,4.567,2.9h.123a5.621,5.621,0,0,1,5.246-2.9c3.95,0,5.616,2.9,5.616,6.789V14.1H200.97V4.533c0-1.728-.555-2.839-2.037-2.839s-2.222,1.358-2.222,3.209v9.2h-5.925V4.533c0-1.728-.555-2.839-2.037-2.839s-2.222,1.358-2.222,3.209v9.2h-6.11Zm33.943,14.688H214.3V14.1h-5.678V-9.6h5.925v8.517h.123a5.619,5.619,0,0,1,4.814-2.283c4.258,0,6.727,3.826,6.727,8.949,0,5.74-2.654,9.072-7.1,9.072a5.225,5.225,0,0,1-4.752-2.777ZM220.1,5.52c0-2.715-.987-4.505-2.777-4.505-1.851,0-2.962,1.79-2.962,4.505s1.173,4.505,2.962,4.505S220.1,8.3,220.1,5.52Zm6.789.123c0-5.308,3.518-8.949,8.578-8.949a8.157,8.157,0,0,1,5.925,2.222c1.975,1.913,2.839,4.876,2.777,8.332H232.815c.247,2.1,1.234,3.209,3.024,3.209a2.313,2.313,0,0,0,2.345-1.6h5.74c-.987,3.888-4.011,5.8-8.27,5.8-5.246-.062-8.764-3.641-8.764-9.01Zm5.925-1.79h5.431c-.123-2.037-1.234-3.086-2.654-3.086C233.926.706,233,1.879,232.815,3.854ZM250.9.089h.123c1.234-2.345,2.839-3.271,4.876-3.271a1.842,1.842,0,0,1,.987.185V2.188h-.123c-3.518-.617-5.554,1.049-5.554,4.876v7.1h-5.986V-2.811H250.9Zm6.6,14.071h5.74a2.292,2.292,0,0,0,2.407,1.419c1.913,0,2.592-1.173,2.592-2.962V11.383h-.123a5.071,5.071,0,0,1-4.073,1.913c-3.641,0-6.85-2.715-6.85-8.023,0-4.876,2.592-8.64,6.542-8.64A4.992,4.992,0,0,1,268.3-1.022h.123V-2.873H274.1V11.815a7.825,7.825,0,0,1-2.345,6.048,8.912,8.912,0,0,1-5.986,1.851C261.2,19.777,258.056,17.925,257.5,14.16Zm10.985-9.134c0-2.1-.987-3.826-2.715-3.826-1.666,0-2.715,1.481-2.715,3.826,0,2.283,1.049,3.888,2.715,3.888S268.486,7.248,268.486,5.027Z" transform="translate(-115 9.6)"/>
</svg>
