<svg xmlns="http://www.w3.org/2000/svg" width="196.383" height="62.268" viewBox="0 0 196.383 62.268">
  <path id="business-insider-2" d="M41.882.445c1.416,0,2.839,0,4.261-.01-.016,5.087.051,10.176-.031,15.263-.036,3.284-1.422,6.783-4.431,8.412a11.936,11.936,0,0,1-11.048-.16c-2.839-1.661-4.218-5.077-4.142-8.263.016-5.082,0-10.165.011-15.247h4.135c.011,4.4-.01,8.8,0,13.195.073,2.022.078,4.222,1.293,5.945,1.634,2.25,5.062,2.462,7.364,1.195,2.084-1.257,2.528-3.878,2.57-6.116.035-4.737,0-9.477.015-14.214M60.34.539a13.705,13.705,0,0,1,10.77,1.49c-.02,1.489-.02,2.972-.02,4.457-2.678-2-6.24-3.464-9.565-2.3A2.644,2.644,0,0,0,59.84,7.736c.569,1.333,2.115,1.721,3.339,2.218C65.815,11,68.855,11.568,70.81,13.8c2.513,3.035,1.876,8.439-1.8,10.285-4.142,2.145-9.317,1.463-13.288-.771,0-1.531,0-3.056-.021-4.587,2.989,2.3,7.136,3.666,10.8,2.265a2.829,2.829,0,0,0,.44-4.9c-2.808-1.7-6.257-2.047-8.95-3.976A6.794,6.794,0,0,1,55.9,4.375,6.671,6.671,0,0,1,60.34.539M98.78.073c5.635,5.171,11.116,10.517,16.648,15.8V.44h4.136V25.4c-5.641-5.357-11.126-10.874-16.8-16.2V24.859c-1.338.01-2.673.01-4.006.015.007-8.265-.034-16.528.021-24.8M130.43.436c4.99,0,9.974.026,14.958-.016.03,1.257.03,2.513.03,3.77q-5.366,0-10.728,0V10c3.19.011,6.376,0,9.566.011v3.743q-4.786.007-9.566,0c0,2.455,0,4.917.011,7.373,3.567-.016,7.14,0,10.7-.011,0,1.293.01,2.59.01,3.883H130.42c.01-8.185,0-16.37.01-24.56m27.109.961c3.878-2.244,8.831-1.556,12.636.513.073,1.52.073,3.044.068,4.565-2.761-2.068-6.481-3.547-9.87-2.192a2.611,2.611,0,0,0-.4,4.59c2.848,1.634,6.328,1.964,8.991,3.971,3.578,2.668,3.314,9.126-.776,11.194-4.142,2.172-9.368,1.531-13.329-.765,0-1.51,0-3.019-.026-4.53,2.885,2.062,6.556,3.464,10.114,2.5a2.88,2.88,0,0,0,2.331-2.958,2.846,2.846,0,0,0-1.721-2.533c-2.793-1.448-6.088-1.857-8.619-3.816-3.3-2.56-3.086-8.428.6-10.543m24.818.083c3.846-2.327,8.882-1.7,12.682.423.016,1.505.016,3,.027,4.509-2.736-2.068-6.469-3.469-9.813-2.1a2.623,2.623,0,0,0-.373,4.565c2.916,1.7,6.546,1.964,9.214,4.132,2.3,1.81,2.755,5.165,1.866,7.812-.833,2.357-3.206,3.731-5.538,4.234a15.438,15.438,0,0,1-10.578-1.71c-.052-1.536-.052-3.071-.057-4.607,3.009,2.234,7.109,3.665,10.765,2.258a2.823,2.823,0,0,0,.5-4.881c-2.886-1.8-6.526-2.062-9.23-4.2-3.188-2.558-3.039-8.275.534-10.427M0,.44C4.335.694,8.837-.2,13.032,1.17c4.658,1.493,5.32,8.779,1.07,11.147,3.873,1.6,4.761,7.094,2.1,10.134-1.634,1.944-4.3,2.461-6.716,2.533-3.165.052-6.324,0-9.488.016V.44M4.143,4.194q-.008,3.227,0,6.452c2.223-.108,4.53.31,6.7-.315,2.622-.76,2.642-5.077.036-5.863-2.2-.559-4.5-.176-6.737-.274m0,10.077c-.01,2.326,0,4.653,0,6.972,2.553-.181,5.294.5,7.709-.569a3.409,3.409,0,0,0-.331-6.045c-2.378-.741-4.927-.2-7.378-.358M82.858.441H87V25h-4.14ZM65.909,38.572c3.862-2.446,9.012-1.767,12.828.44-.021,1.479-.021,2.958-.016,4.435-2.792-2.041-6.628-3.618-9.989-2.052a2.581,2.581,0,0,0-.383,4.327c3.062,1.944,7.131,2.037,9.772,4.7,1.767,1.669,2.062,4.332,1.608,6.607a6.652,6.652,0,0,1-4.7,4.615,14.756,14.756,0,0,1-11.571-1.458c.011-1.515.016-3.029,0-4.544,2.911,2.187,6.867,3.624,10.445,2.342A2.807,2.807,0,0,0,74.538,53c-2.89-1.8-6.566-2.032-9.224-4.265-3.013-2.547-2.817-8.028.6-10.158m-49.49-1.034h4.131q.015,12.145,0,24.3H16.418Zm15.893-.569C37.813,42.222,43.3,47.5,48.852,52.7c.021-5.1,0-10.191.01-15.284q2.062-.009,4.137-.006c.01,8.288-.011,16.571.01,24.859C47.4,56.951,41.9,51.514,36.331,46.15c-.027,5.228,0,10.459-.011,15.692H32.313q-.008-12.44,0-24.872Zm58.172.569H94.62v24.3H90.483Zm16.034,0q5,0,10-.011a10.817,10.817,0,0,1,9.555,5.28,15.046,15.046,0,0,1,.884,11.809,10.8,10.8,0,0,1-9.462,7.145c-3.656.187-7.316.027-10.977.078Zm4.261,3.748v16.8c2.962-.108,6.153.456,8.908-.93,2.651-1.366,3.863-4.468,3.785-7.322.108-2.885-.91-6.121-3.567-7.6-2.788-1.556-6.091-.749-9.126-.947m25.464-3.748q7.429-.007,14.865,0c0,1.251-.006,2.5-.006,3.754q-5.365-.016-10.723,0v5.676q4.778.009,9.566.006v3.619c-3.19,0-6.382-.006-9.566,0V58.08c3.573.011,7.151,0,10.729.006v3.748H136.241Zm27.02,0c3.355.03,6.711-.031,10.062.021,2.848.072,5.858,1.711,6.677,4.586a8.726,8.726,0,0,1-1.045,7.6,7.226,7.226,0,0,1-4.063,2.167q4.358,4.923,8.65,9.917-2.455.047-4.891,0c-2.772-3.293-5.6-6.541-8.382-9.813-.92.006-1.835.006-2.749.006-.01,3.273,0,6.545,0,9.819q-2.133.007-4.265,0V37.525m4.265,3.633c-.01,2.41,0,4.819,0,7.228,2.208-.124,4.517.347,6.654-.341,2.642-1.06,2.7-5.3.1-6.433-2.139-.818-4.5-.337-6.741-.451" transform="translate(0 0)" fill="#185f7d"/>
</svg>
