<svg id="cnbc-1" xmlns="http://www.w3.org/2000/svg" width="80.853" height="61.107" viewBox="0 0 80.853 61.107">
  <path id="Path_19609" data-name="Path 19609" d="M14.158,28.756c-.3-1.443-1.483-1.828-2.81-1.951-4.285-.4-5.044,2.8-5.044,4.155,0,2.31.677,4.222,4.881,4.222.777,0,2.918-.8,2.918-2.094h6.05c-.245,3.846-6.715,4.767-9.537,4.767-5.846,0-10.853-1.088-10.609-6.842C.18,26.905,4.063,24.022,11.791,24.2c4.306.1,8.446,1.441,8.462,4.556H14.158Zm60.595,0c-.3-1.443-1.483-1.828-2.808-1.951-4.285-.4-5.044,2.8-5.044,4.155,0,2.31.675,4.222,4.883,4.222.777,0,2.916-.8,2.916-2.094h6.05c-.245,3.846-6.713,4.767-9.537,4.767-5.846,0-10.851-1.088-10.609-6.842.173-4.108,4.057-6.991,11.786-6.813,4.307.1,8.444,1.441,8.462,4.556h-6.1ZM21.336,24.477H29.19l6.7,9.388h.053V24.477h5.034V37.513H33.453l-7.03-9.39H26.37v9.39H21.336Zm21.2,0h9.539c4.585,0,7.281,1.279,7.281,3.212,0,1.141-1.13,2.551-3.646,2.967v.037c3.03.18,4.148,2.094,4.148,3.242,0,2.3-2.628,3.577-7.756,3.577H42.533Zm5.52,5.063h1.583c2.436,0,3.728-.19,3.728-1.2,0-1.084-1.077-1.443-3.269-1.443H48.051v2.644Zm0,5.238h1.583c2.936,0,4.012-.308,4.012-1.318,0-1.084-1.359-1.445-3.551-1.445H48.053v2.763Z" transform="translate(0.001 23.251)"/>
  <path id="Path_19610" data-name="Path 19610" d="M69.954,46.287c6.207,0,9.654-5.364,9.272-10.419a9.273,9.273,0,0,0-9.96-8.582c2.757-1.532,6.436-8.735.843-14.4C65.665,8.668,60,10.2,58,12.039c1.073-3.524-.69-10.8-7.891-11.953a9.3,9.3,0,0,0-10.19,5.9,9.174,9.174,0,0,0-9.809-5.9,9.469,9.469,0,0,0-8.274,11.647,9.667,9.667,0,0,0-11.876.843c-5.44,5.438-2.53,12.794.461,14.557A9.372,9.372,0,0,0,.77,34.872c-1.226,7.2,4.291,11.415,9.654,11.415Z" transform="translate(0.576 0)" fill="none"/>
  <path id="Path_19611" data-name="Path 19611" d="M20.189,11.482,31.145,36.536,8.542,21.059A8.178,8.178,0,0,1,7.163,8.034c4.444-3.753,10.727-2.451,13.025,3.448Z" transform="translate(4.372 5.69)" fill="#d9782d"/>
  <path id="Path_19612" data-name="Path 19612" d="M27.987,10.537,24,38.578,12.665,11.918A8.047,8.047,0,0,1,19.407.808C23.621.347,28.906,3.565,27.987,10.537Z" transform="translate(11.59 0.735)" fill="#b01842"/>
  <path id="Path_19613" data-name="Path 19613" d="M36.559,11.87,25.3,38.609,21.7,14.474c-.308-3.677,1.992-3.753,2.836-4.444-.153-.537-1.3-.537-1.3-.537H21.084C20.854,3.21,25.757.452,29.742.758A8.135,8.135,0,0,1,36.559,11.87Z" transform="translate(20.258 0.707)" fill="#543b92"/>
  <path id="Path_19614" data-name="Path 19614" d="M45.908,20.874l-22.6,15.555L33.956,11.68C37.174,3.865,44.683,5.4,47.363,8.386A8.059,8.059,0,0,1,45.908,20.874Z" transform="translate(22.402 5.723)" fill="#397db7"/>
  <path id="Path_19615" data-name="Path 19615" d="M48.845,30.865H22.72L43.943,16.077a7.955,7.955,0,0,1,12.182,4.214C57.658,25.349,54.209,30.865,48.845,30.865Z" transform="translate(21.838 14.043)" fill="#6cb35d"/>
  <path id="Path_19616" data-name="Path 19616" d="M1.728,20.023c1.992-5.211,7.509-7.05,12.412-3.908L35.364,30.9H9.62a8.257,8.257,0,0,1-7.891-10.88Z" transform="translate(1.302 14.006)" fill="#ecb73b"/>
</svg>
