<svg xmlns="http://www.w3.org/2000/svg" width="189.149" height="37.132" viewBox="0 0 189.149 37.132">
  <path id="entrepreneur-2" d="M.277,25.205l2.391-.381V2.739L0,2.392.139,0h16.7l-.416,6.692-3.327-.1-.208-4.2H7.728v9.95H9.981l.52-2.288,2.322.069v6.865H10.5l-.554-2.358H7.694v10.54h5.2l.485-4.576,3.5.1.277,6.969H.173Zm18.437,2.5.1-2.045,1.871-.381V11.337l-2.183-.208V9.049l5.476-.8L24.4,9.43v.8a6.579,6.579,0,0,1,4.956-2.219c2.981,0,5.2,1.8,5.2,5.374V25.24l1.976.381-.1,2.045H29.907V14.423c0-1.907-.693-2.982-2.426-2.982a3.756,3.756,0,0,0-1.455.277,6.735,6.735,0,0,0-.8.9V25.31l1.975.381-.139,2.045H18.714Zm104.694,0,.069-2.045,1.871-.381V11.337l-2.183-.208V9.049l5.476-.8.416,1.179v.8a6.579,6.579,0,0,1,4.956-2.219c2.981,0,5.2,1.8,5.2,5.374V25.24l1.976.381-.1,2.045H134.6V14.423c0-1.907-.693-2.982-2.426-2.982a3.756,3.756,0,0,0-1.455.277,6.717,6.717,0,0,0-.8.9V25.31l1.975.381-.139,2.045h-8.352ZM46.854,27.32a10.6,10.6,0,0,1-3.881.659c-2.322,0-4.471-1.04-4.471-4.438v-12.2l-2.218-.346.1-2.427,2.5-.1,1.074-3.71,3.188-.139V8.6h3.431l-.243,2.427-3.154.347v12.2a1.5,1.5,0,0,0,1.594,1.664h1.871Zm129.715.381.069-2.011,1.767-.416V11.337l-2.079-.208V9.049l5.684-.8.381,1.352v.451a9.806,9.806,0,0,1,5.926-1.838l.832.728-.589,5.27-3.119-.1-.312-2.808a4.537,4.537,0,0,0-2.01.728V25.31l1.975.416-.139,2.011h-8.386Zm-81.613,0,.1-2.011,1.767-.416V11.337l-2.079-.208V9.049l5.684-.8.381,1.352v.451a9.806,9.806,0,0,1,5.926-1.838l.832.728-.659,5.27-3.119-.1L103.48,11.3a4.537,4.537,0,0,0-2.01.728V25.31l1.975.416-.139,2.011H94.955Zm-46.715,0,.1-2.011,1.767-.416V11.337l-2.079-.208V9.049l5.684-.8L54.1,9.6v.451a9.775,9.775,0,0,1,5.891-1.838l.832.728-.589,5.27-3.119-.1L56.8,11.3a4.536,4.536,0,0,0-2.01.728V25.31l1.975.416-.139,2.011H48.24Zm17.951-8.494c0,3.329,1.455,5.894,4.332,5.894a8.836,8.836,0,0,0,4.055-.971l.8,1.838a9.649,9.649,0,0,1-6.1,2.011c-5.06,0-7.971-4.368-7.971-9.985,0-4.784,2.114-10.02,7.9-10.02,5.06,0,6.966,4.681,6.966,9.881L75.687,19.1Zm-.069-2.219,5.822-.278c-.1-2.323-.589-6-2.876-6a3.228,3.228,0,0,0-1.629.451A13.958,13.958,0,0,0,66.122,16.989Zm80.608,2.219c0,3.329,1.455,5.894,4.332,5.894a8.834,8.834,0,0,0,4.054-.971l.8,1.838a9.648,9.648,0,0,1-6.1,2.011c-5.06,0-7.971-4.368-7.971-9.985,0-4.784,2.114-10.02,7.9-10.02,5.06,0,6.966,4.681,6.966,9.881l-.485,1.248Zm-.069-2.219,5.822-.278c-.1-2.323-.589-6-2.876-6a3.227,3.227,0,0,0-1.629.451A13.958,13.958,0,0,0,146.661,16.989Zm-33.754,2.219c0,3.329,1.455,5.894,4.332,5.894a8.834,8.834,0,0,0,4.054-.971l.8,1.838a9.648,9.648,0,0,1-6.1,2.011c-5.06,0-7.971-4.368-7.971-9.985,0-4.784,2.114-10.02,7.9-10.02,5.06,0,6.966,4.681,6.966,9.881L122.4,19.1Zm-.069-2.219,5.822-.278c-.1-2.323-.589-6-2.876-6a3.228,3.228,0,0,0-1.629.451A13.444,13.444,0,0,0,112.838,16.989ZM169.811,27.7l-.485-1.664a6.015,6.015,0,0,1-4.471,1.941c-2.981,0-5.649-1.491-5.649-5.617V10.852l-2.183-.208V8.806l6.307-.728.485,1.664V21.807c0,2.115.866,3.224,2.564,3.224a4.92,4.92,0,0,0,1.664-.277,6.535,6.535,0,0,0,.866-1.075V10.852l-2.252-.208V8.806l6.376-.728.485,1.664V25.275l1.975.381-.243,2.045Zm-84.178-2.5a4.937,4.937,0,0,1-2.426-.52V12.446a10.053,10.053,0,0,1,.9-1.144,4.9,4.9,0,0,1,1.732-.277c2.6,0,3.05,2.635,3.05,7.35,0,4.542-.693,5.79-.866,6.31a5.381,5.381,0,0,1-2.391.52ZM93.4,17.543c0-5.859-1.733-9.535-6.065-9.535a5.737,5.737,0,0,0-4.782,2.358V9.708l-.485-1.664-5.649.8v2.011l2.183.277V34.775l-1.871.381-.1,1.976h8.352l.139-1.976-1.975-.381V27.286a6.48,6.48,0,0,0,3.119.728c7.07,0,7.139-7.177,7.139-10.47Z"/>
</svg>
