<svg id="forbes-3" xmlns="http://www.w3.org/2000/svg" width="168.103" height="42.474" viewBox="0 0 168.103 42.474">
  <path id="Path_19617" data-name="Path 19617" d="M94.511.262c0,.336-.411.486-1.307.486a4.049,4.049,0,0,0-1.233.205,14.125,14.125,0,0,1-1.756.355c-.672.093-1.55.261-1.961.355a36.393,36.393,0,0,1-4,.747c-1.251.168-1.55.392-1.476,1.139.056.411.149.486,1.046.56a2.914,2.914,0,0,1,2.559,2.279c.336.953.355,1.644.374,17.875v16.9l.56.224a4.4,4.4,0,0,0,1.214.261,5.294,5.294,0,0,1,1.307.205c1.681.542,9.1.784,11.58.392a14.392,14.392,0,0,0,6.817-2.9c1.326-1.009,3.624-3.7,3.642-4.259a.854.854,0,0,1,.28-.542.854.854,0,0,0,.28-.542.868.868,0,0,1,.187-.5c.5-.5,1.382-5.23,1.364-7.266a20.126,20.126,0,0,0-.766-5.08A1.664,1.664,0,0,1,113,20.49a9.156,9.156,0,0,0-1.718-3.325,3.1,3.1,0,0,1-.523-.841,11.927,11.927,0,0,0-3.418-2.69.816.816,0,0,1-.5-.28.953.953,0,0,0-.635-.28,2.551,2.551,0,0,1-.859-.28,8.941,8.941,0,0,0-3.082-.28,10.038,10.038,0,0,0-5.062.859,7.084,7.084,0,0,1-1.27.355c-.6.131-.672.093-.784-.392-.131-.486.187-8.872.43-11.991L95.688,0h-.6c-.374,0-.579.093-.579.261ZM99.125,15.6a3.577,3.577,0,0,0,.915.28,6,6,0,0,1,2.409,1.812,9.831,9.831,0,0,1,1.588,3.082,1.783,1.783,0,0,0,.224.766c.766,1.363.747,9.862,0,11.282a2.152,2.152,0,0,0-.224.934,1.688,1.688,0,0,1-.28.878,1.442,1.442,0,0,0-.28.672,3.574,3.574,0,0,1-.467,1.139c-.243.448-.542.99-.635,1.2a6.94,6.94,0,0,1-2.391,2.316c-.915.56-1.046.6-2.615.542l-1.644-.056-.112-2.522c-.5-10.553-.672-21.405-.336-21.741a17.98,17.98,0,0,1,2.932-.841,3.046,3.046,0,0,1,.915.261ZM0,1.961c0,.766.374,1.027,1.494,1.027A4.337,4.337,0,0,1,5.1,5.566,19.553,19.553,0,0,1,5.7,8.05c.261,1.569.318,3.325.3,13.542,0,10.721-.037,11.917-.374,13.71a11.9,11.9,0,0,1-.616,2.428,3.721,3.721,0,0,1-3.287,2.316C.43,40.214,0,40.494,0,41.129c0,.374.112.542.43.616.224.056,5.08.075,10.777.056l10.366-.056.056-.523c.093-.8-.224-1.009-1.7-1.158a5.682,5.682,0,0,1-1.812-.43c-.71-.448-1.494-1.2-1.494-1.457a.676.676,0,0,0-.261-.43,1.759,1.759,0,0,1-.355-.915c-.056-.374-.187-1.121-.28-1.644-.112-.523-.261-3.474-.336-6.537-.112-5.08-.093-5.6.187-5.846.224-.187.71-.224,2.036-.149,2.9.168,3.922.448,4.856,1.251a7.939,7.939,0,0,1,2,3.53c0,.915,1.569,1.382,1.774.542.056-.243.075-3.287.056-6.78l-.056-6.351-.654-.056c-.728-.075-1.121.3-1.121,1.083a1.737,1.737,0,0,1-.28.859,1.276,1.276,0,0,0-.28.616,6.33,6.33,0,0,1-1.588,2.073c-1.158.859-1.513.934-4.277.934a9.623,9.623,0,0,1-2.764-.187c-.093-.28.187-15.521.3-15.8.149-.392,9.227-.374,9.75.019a1.314,1.314,0,0,0,.654.28,8.3,8.3,0,0,1,2.54,1.606,12.231,12.231,0,0,1,1.606,2.129c.075.149.336.654.6,1.1a3.786,3.786,0,0,1,.467,1.065,2.6,2.6,0,0,0,.28.766,4.552,4.552,0,0,1,.374,1.027c.131.654.784.841,1.569.448l.579-.318V1.307H0Zm42.922,10.1a9.586,9.586,0,0,1-1.476.355C35.918,13.43,32.22,17,30.483,22.974c-.43,1.513-.542,7.453-.131,8.442a4.218,4.218,0,0,1,.28,1.177,7.07,7.07,0,0,0,.859,2.391,2.609,2.609,0,0,1,.261.71,17.846,17.846,0,0,0,3.194,3.9,15.015,15.015,0,0,0,4.09,2.241c2.316.841,8.349.841,10.647-.019,4.371-1.606,6.743-3.922,8.667-8.442a3.721,3.721,0,0,0,.3-1.121,2.513,2.513,0,0,1,.28-.878c.205-.355.261-1.326.261-4.3s-.056-3.941-.261-4.3a2.512,2.512,0,0,1-.28-.878,7.274,7.274,0,0,0-.859-2.353,2.609,2.609,0,0,1-.261-.71c0-.467-2.372-3.25-3.418-4.016-1.569-1.158-4.053-2.316-4.968-2.316a6.8,6.8,0,0,1-1.438-.28c-.878-.261-4.557-.411-4.782-.168Zm2.428,1.961c1.868.448,3.848,3.362,4.352,6.425.075.5.224,1.345.336,1.868a82.034,82.034,0,0,1,0,10.927c-.093.467-.243,1.251-.336,1.774a8.75,8.75,0,0,1-2.185,4.632c-.934.934-1.83,1.158-3.493.953A2.586,2.586,0,0,1,42.25,39.6a6.933,6.933,0,0,1-1.2-1.55,14.2,14.2,0,0,1-1.476-4.24c-.093-.56-.243-1.457-.336-1.961a68.724,68.724,0,0,1,0-9.806c.093-.56.224-1.494.3-2.055a4.269,4.269,0,0,1,.355-1.4,1.662,1.662,0,0,0,.261-.859,1.081,1.081,0,0,1,.28-.728.9.9,0,0,0,.28-.579c0-.542,1.7-2.111,2.54-2.353a2.988,2.988,0,0,1,2.092-.037Z" transform="translate(0 0)"/>
  <path id="Path_19618" data-name="Path 19618" d="M332.046,64.243a7.558,7.558,0,0,1-1.588.374c-1.625.261-3.1.542-4.2.8a16.871,16.871,0,0,1-1.868.318,5.311,5.311,0,0,0-1.438.355,3.363,3.363,0,0,1-1.307.224c-1.158,0-1.606.3-1.513,1.027.056.523.112.56.971.616a2.858,2.858,0,0,1,2.522,1.83c.392,1.121.6,7.284.467,13.878-.112,5.1-.168,5.958-.467,6.631a2.842,2.842,0,0,1-2.26,1.886c-1.027.149-1.326.43-1.233,1.158l.056.523h8.76c8.144,0,8.779-.019,8.965-.336a.506.506,0,0,0,0-.635c-.243-.374-.822-.56-2.353-.71-1.943-.205-2.466-1.1-2.8-4.856a122.014,122.014,0,0,1-.075-13.261c.224-1.513.318-1.644,1.513-2.223a5,5,0,0,1,2.671-.486,5.44,5.44,0,0,1,2.167.28,2.365,2.365,0,0,0,.822.28,1.008,1.008,0,0,1,.579.261,2.674,2.674,0,0,0,.8.374c.43.093.523.019.878-.691a3.73,3.73,0,0,0,.392-1.1.812.812,0,0,1,.28-.523.953.953,0,0,0,.28-.635,1.6,1.6,0,0,1,.28-.784,1.369,1.369,0,0,0,.28-.672,2.456,2.456,0,0,1,.262-.841c.747-1.55.9-1.905.822-2.2-.168-.84-3.717-1.326-5.342-.728a9.714,9.714,0,0,0-5.3,4.109,3.751,3.751,0,0,1-1.027,1.2c-.168,0-.243-.691-.28-2.746a10.111,10.111,0,0,0-.243-2.783A.772.772,0,0,0,332.046,64.243Zm57.678-.075a8.648,8.648,0,0,1-1.476.374,10.527,10.527,0,0,0-2.97.859,3.921,3.921,0,0,1-.56.28c-.149.056-.355.149-.467.187a16.522,16.522,0,0,0-4.782,4.277,9.443,9.443,0,0,1-.542.934,7.98,7.98,0,0,0-.486.841c-.056.149-.224.5-.374.784a2.059,2.059,0,0,0-.262.841,1.36,1.36,0,0,1-.28.691,1.894,1.894,0,0,0-.28.934,6.8,6.8,0,0,1-.28,1.494,17.814,17.814,0,0,0-.075,5.809c.112.411.262,1.139.336,1.644a2.861,2.861,0,0,0,.355,1.1,1.006,1.006,0,0,1,.224.635.953.953,0,0,0,.28.635.854.854,0,0,1,.28.56.854.854,0,0,0,.28.56.8.8,0,0,1,.28.411,10.429,10.429,0,0,0,2.055,2.578,13.429,13.429,0,0,0,3.362,2.54c.149.056.542.205.841.336a13.954,13.954,0,0,0,6.257,1.121,16.673,16.673,0,0,0,5.043-.6c.261-.112.934-.374,1.494-.6a13.476,13.476,0,0,0,4.034-2.652c1.121-1.065,1.307-1.7.579-2.036-.374-.168-.6-.093-1.494.467a4.524,4.524,0,0,1-1.382.672,2.433,2.433,0,0,0-.8.28,7.84,7.84,0,0,1-2.8.28,9.264,9.264,0,0,1-4.95-.971,10.083,10.083,0,0,1-4.3-4.445,12.357,12.357,0,0,1-1.214-5.211v-1.7l8.928-.037,8.909-.056.056-1.177a7.477,7.477,0,0,0-.243-2.185,7.714,7.714,0,0,1-.28-1.532,1.824,1.824,0,0,0-.28-.915,1.313,1.313,0,0,1-.28-.654A3.524,3.524,0,0,0,402,70.407c-.262-.448-.523-.953-.6-1.1a10.582,10.582,0,0,0-1.905-2.335c-.355-.318-.766-.71-.934-.9a1.006,1.006,0,0,0-.579-.318.825.825,0,0,1-.523-.224,8.194,8.194,0,0,0-2.839-1.027A18.206,18.206,0,0,0,389.724,64.168Zm2.97,2.764a5.132,5.132,0,0,1,1.363,2.9,5.047,5.047,0,0,0,.374,1.139,18.456,18.456,0,0,1,.056,4.744c-.093.056-2.073.112-4.445.149l-4.3.075-.056-1.009a5.037,5.037,0,0,1,.149-1.588,12.75,12.75,0,0,0,.374-1.42,12.463,12.463,0,0,1,.374-1.494c.131-.355.28-.747.318-.841a4.5,4.5,0,0,1,.43-.747,9.445,9.445,0,0,0,.542-.934,4.887,4.887,0,0,1,1.943-1.625,4.437,4.437,0,0,1,1.307-.075A1.935,1.935,0,0,1,392.694,66.932Zm22.376-2.578a5.5,5.5,0,0,1-1.307.28,1.767,1.767,0,0,0-.915.28,1.6,1.6,0,0,1-.784.28.737.737,0,0,0-.542.187,2.266,2.266,0,0,1-.766.467,12.593,12.593,0,0,0-3.269,2.988,7.009,7.009,0,0,1-.336.654c-.841,1.494-.859,1.55-.859,4.016,0,2,.075,2.522.336,2.9a1.732,1.732,0,0,1,.318.71c0,.728,3.231,3.773,4.016,3.773a.787.787,0,0,1,.467.28.953.953,0,0,0,.635.28,1.475,1.475,0,0,1,.747.28,1.537,1.537,0,0,0,.766.28,1.536,1.536,0,0,1,.766.28,1.33,1.33,0,0,0,.635.28,11.472,11.472,0,0,1,4.483,2.708,3.626,3.626,0,0,1,.672,3.287,2.747,2.747,0,0,0-.3.859c0,.467-.953,1.532-1.887,2.111-.859.523-1.046.56-2.69.56a5.008,5.008,0,0,1-2.69-.448,8.26,8.26,0,0,1-3.119-2.6c-.3-.43-.579-.822-.635-.878a5.229,5.229,0,0,1-.672-1.121c-.205-.542-.6-1.4-.934-2.111-.28-.542-.448-.691-.841-.691a.933.933,0,0,0-.672.243,59.04,59.04,0,0,0,.205,8.5,1.179,1.179,0,0,0,.616.28,5.782,5.782,0,0,1,1.083.28,23.784,23.784,0,0,0,8.032,1.009,35.239,35.239,0,0,0,3.922-.168,8.542,8.542,0,0,0,3.157-1.009.774.774,0,0,1,.43-.168c1.1,0,4.539-3.81,4.539-5.043,0-.542.205-.934.486-.934.205,0,.261-.467.261-2.335,0-1.943-.056-2.335-.28-2.335-.149,0-.336-.224-.392-.523a5.873,5.873,0,0,0-1.905-2.858,9.778,9.778,0,0,0-1.42-1.121,10.464,10.464,0,0,1-1.326-.691,7.2,7.2,0,0,0-1.681-.728c-.71-.262-1.251-.486-2.559-1.065-.336-.149-.747-.318-.9-.374a11.483,11.483,0,0,1-2.876-1.943,4.237,4.237,0,0,1-1.1-1.774,2.566,2.566,0,0,1,.056-2.185,3.711,3.711,0,0,1,1.756-2.447c.672-.5.859-.542,2.353-.542a3.8,3.8,0,0,1,1.98.28,1.369,1.369,0,0,0,.672.28,5.05,5.05,0,0,1,1.513,1.158c1.139,1.121,1.513,1.756,2.8,4.67.336.766.841.934,1.27.411.205-.243.243-1.046.205-3.7-.056-2.876-.112-3.437-.392-3.7a8.284,8.284,0,0,0-3.661-1.1,14.881,14.881,0,0,1-1.849-.355,19.623,19.623,0,0,0-5.622.093Z" transform="translate(-260.322 -52.121)"/>
</svg>
