<svg id="fox-news-channel-logo-1" xmlns="http://www.w3.org/2000/svg" width="92.57" height="75.083" viewBox="0 0 92.57 75.083">
  <path id="Path_19619" data-name="Path 19619" d="M0,0H92.57V75.083H0Z" fill="#036"/>
  <g id="Group_16941" data-name="Group 16941">
    <path id="Path_19621" data-name="Path 19621" d="M92.57,53.743H92.4a74.264,74.264,0,0,0-3.485-7.368h1.139q1.349,2.586,2.519,5.247ZM0,10.284A74.184,74.184,0,0,1,14.009,7.053L15.366,0h11L23.9,6.4a72.775,72.775,0,0,1,8.852.517L36.173,0H48.256L42.5,8.74a74.136,74.136,0,0,1,21.535,9.422c1.319.847,2.6,1.739,3.845,2.661H66.133A73.962,73.962,0,0,0,41.915,9.647L34.877,20.568H29.825V28L17.36,48.339H13.372v6.8L.6,75.083h-.4l32.088-67.2a70.986,70.986,0,0,0-8.74-.472L.09,75.083H0m0-1.252L13.784,8.118A73.228,73.228,0,0,0,.06,11.416H0" fill="#fff"/>
    <path id="Path_19622" data-name="Path 19622" d="M220.2,309.966h6.761v-6.319H220.2v-3.013h8.23l-.45-6.334H213.315v23.191H220.2Zm28.6,7.458h7.4l3.373-5.689,3.455,5.7h7.57l-7.3-12.015,6.574-11.078h-7.5l-2.826,4.812-2.931-4.827h-7.623l6.768,11.146Zm-8.6.255a11.874,11.874,0,0,0,12.038-11.671,12.067,12.067,0,0,0-24.113,0,11.863,11.863,0,0,0,12.053,11.671Zm-2.129-16.76a2.148,2.148,0,0,1,2.054-2.129,2.217,2.217,0,0,1,2.174,2.129v9.842a2.119,2.119,0,0,1-4.227,0Zm-16.3,33.887h7v-4.64h-7V327.01h8.53v-5.022H216.358v21.685H230.4v-5.217h-8.635Zm30.132-12.817L249.211,334.4l-2.623-12.413h-4.632l-2.5,12.54-2.6-12.54h-5.524l5.015,21.685h5.037l2.466-12.428,2.541,12.428h4.932l5.037-21.685Zm18.289,9.8c-1.439-1.327-3.088-1.679-4.94-2.2-2.189-.615-3.4-.682-3.4-1.956a1.716,1.716,0,0,1,1.874-1.544h.015a2.839,2.839,0,0,1,2.991,2.174l4.73-1.574a7.269,7.269,0,0,0-7.346-5.389c-4.94,0-7.96,3.036-7.96,7.121,0,3.53,2.054,5.269,6.169,6.5,2.458.742,3.763.682,3.763,2.264,0,.832-.772,1.484-2.054,1.484a3.211,3.211,0,0,1-3.53-2.646l-5.187,1.139c.884,4.115,3.95,6.559,8.65,6.559a8.236,8.236,0,0,0,6.169-2.541,7.009,7.009,0,0,0,1.821-4.775,6.034,6.034,0,0,0-1.776-4.617h.008Zm-60.556,1.087-6.461-10.786H196.9v21.6h5.5V331.065l7.376,12.592h5.217v-21.6h-5.352Z" transform="translate(-182.141 -272.241)" fill="#fff"/>
  </g>
</svg>
