<svg id="huffpost" xmlns="http://www.w3.org/2000/svg" width="216.869" height="25.358" viewBox="0 0 216.869 25.358">
  <path id="Path_19623" data-name="Path 19623" d="M58.787,24.846h7.921L70.954.542H63.034l-1.566,8.7H54.6l1.566-8.7H48.246L44,24.846h7.921l1.6-9.1h6.867ZM75.442.512,73.032,14.034a15.529,15.529,0,0,0-.3,3.042c0,7.168,6.264,8.252,10.029,8.252,7.891,0,11.294-2.62,12.528-9.7L97.939.482H90.018L87.759,13.191c-.723,3.975-1.235,6.053-4.186,6.053-1.927,0-2.861-1.024-2.861-3.132a16.343,16.343,0,0,1,.361-3.042L83.362.482H75.442ZM139.8,24.846h7.921l1.114-6.264h3.734c6.9,0,10.721-3.734,10.721-10.541,0-4.789-3.313-7.529-9.125-7.529H144.047Zm12.348-12.257h-2.289l1.054-5.722h2.138c1.747,0,2.68.873,2.68,2.47C155.732,11.354,154.377,12.589,152.148,12.589ZM178.681,0c-8.613,0-13.763,5.572-13.763,14.938,0,6.505,4.1,10.42,10.962,10.42,8.613,0,13.763-5.572,13.763-14.938C189.673,3.885,185.577,0,178.681,0Zm-2.319,19.064c-2.048,0-3.253-1.476-3.253-3.945a13.489,13.489,0,0,1,.271-2.68c.6-3.192,1.626-6.114,4.849-6.114,2.048,0,3.253,1.476,3.253,3.945a13.49,13.49,0,0,1-.271,2.68C180.608,16.112,179.584,19.064,176.362,19.064ZM217.2,24.846h7.921l3.132-17.8h5.963L235.36.542H215.092l-1.144,6.505h6.324ZM204.069,9.517c-2.5-.783-3.524-1.114-3.524-2.289,0-.783.512-1.717,2.018-1.717a2.529,2.529,0,0,1,2.409,1.566l6.987-1.9C211.146,1.747,208.195,0,203.105,0c-9.577,0-10.33,6.415-10.33,8.372,0,3.975,2.108,6.415,6.686,7.68,1.2.331,2.59.693,2.59,2.018,0,1.054-.783,1.717-2.138,1.717A3.2,3.2,0,0,1,196.9,17.8L190,19.666c.753,3.614,4.156,5.662,9.487,5.662,4.066,0,10.872-1.084,10.872-8.433.03-3.674-2.048-6.084-6.294-7.379Z" transform="translate(-30.749 0)"/>
  <path id="Path_19624" data-name="Path 19624" d="M8.824,26.1,13.1,1.8H0V26.1ZM208.014,1.8l-4.246,24.3h13.1V1.8Z" transform="translate(0 -1.258)" fill="#0dbe98"/>
  <path id="Path_19625" data-name="Path 19625" d="M233.186,18.866h6.656l1.084-6.114H234.27l.753-4.517h9.306L245.473,1.7H228.246L224,26.034h7.921Zm20.75,0h6.686l1.084-6.114H255.05l.753-4.517h9.306L266.253,1.7H249.027L244.78,26.034H252.7Z" transform="translate(-156.539 -1.188)"/>
</svg>
