<svg id="inc-2" xmlns="http://www.w3.org/2000/svg" width="102.803" height="35.433" viewBox="0 0 102.803 35.433">
  <path id="Path_19626" data-name="Path 19626" d="M1063.493,299.233a4.323,4.323,0,1,1-4.283-4.321A4.332,4.332,0,0,1,1063.493,299.233Z" transform="translate(-960.691 -268.591)" fill="#010101" fill-rule="evenodd"/>
  <path id="Path_19627" data-name="Path 19627" d="M732.966,104.583l10.355-1.071q-1.517-9.64-11.336-10.979c-9.819-1.339-15.889,3.213-17.5,5.534a13.752,13.752,0,0,0-2.589,8.123,12.657,12.657,0,0,0,2.946,8.034c.8.893,4.463,5.267,13.746,5.267s12.318-3.571,13.836-6.873a9.073,9.073,0,0,0,.893-3.481H733.145q-.446,4.017-4.552,4.017c-4.106,0-4.642-3.838-4.463-6.963s-.089-7.23,4.285-7.409Q732.788,98.6,732.966,104.583Z" transform="translate(-648.347 -84.057)" fill-rule="evenodd"/>
  <g id="Group_16942" data-name="Group 16942" transform="translate(0 0)">
    <path id="Path_19628" data-name="Path 19628" d="M64.722,27.53v7.352H46.2v-7.6h3.5v-.226q0-3.876,0-7.753a3.357,3.357,0,0,0-.631-2.082,3.294,3.294,0,0,0-2.126-1.242A5.082,5.082,0,0,0,42.7,16.9a4.425,4.425,0,0,0-1.772,3.548c-.039,2.252-.01,4.505-.009,6.758,1.2.065,2.385.065,3.586.065v7.617H25.561v-7.6h3.406V15.856H25.559V8.242H40.5v5.25c.222-.238.4-.413.56-.6a12.107,12.107,0,0,1,4.156-3.262,11.828,11.828,0,0,1,3.589-1,17.715,17.715,0,0,1,6.281.286,9.049,9.049,0,0,1,4.08,2.038,7.109,7.109,0,0,1,2.246,4.075,12.526,12.526,0,0,1,.213,2.2c.022,3.247.01,6.495.01,9.742v.295h3.087ZM4.546,8.23H.025V.047H24.261V8.183H19.739V27.261h4.519V34.88H.029v-7.6H4.546Z" transform="translate(-0.025 -0.047)" fill="#010101" fill-rule="evenodd"/>
  </g>
</svg>
