<svg xmlns="http://www.w3.org/2000/svg" width="168.766" height="46.992" viewBox="0 0 168.766 46.992">
  <path id="yahoo-7" d="M31.547,11.624H21.6L15.769,25.51,9.938,11.624H-.01q5.421,12.91,10.842,25.821l-4,9.538h9.948C21.75,35.134,26.6,23.4,31.547,11.624ZM158.049.064h10.706l-9.682,23.394H148.367ZM151,25.714a6.036,6.036,0,1,1-6.036,6.036A6.036,6.036,0,0,1,151,25.714ZM129.948,10.921A13.574,13.574,0,1,1,116.374,24.5,13.574,13.574,0,0,1,129.948,10.921Zm0,8.274a5.3,5.3,0,1,1-5.3,5.3A5.3,5.3,0,0,1,129.948,19.2Zm-29.141-8.274A13.574,13.574,0,1,1,87.233,24.5a13.574,13.574,0,0,1,13.574-13.574Zm0,8.274a5.3,5.3,0,1,1-5.3,5.3,5.3,5.3,0,0,1,5.3-5.3ZM60.733-.01h8.976V13.945s1.57-3.023,6.758-3.023S84.981,13.2,85.048,22.55V37.787H76.072V22.55a3.182,3.182,0,1,0-6.362.09V37.787H60.732V-.01ZM48.51,11.624h8.976V37.787H48.51V35.321a11.057,11.057,0,0,1-7.232,2.749c-6.62,0-11.986-6.077-11.986-13.574s5.366-13.574,11.986-13.574a11.055,11.055,0,0,1,7.232,2.749V11.624ZM43.454,19.2a5.3,5.3,0,1,1-5.3,5.3,5.3,5.3,0,0,1,5.3-5.3Z" transform="translate(0.01 0.01)" fill="#6101d1" fill-rule="evenodd"/>
</svg>
